<svg xmlns="http://www.w3.org/2000/svg" width="120" height="140" viewBox="-60 -80 120 145">
  <!-- Stars -->
  <circle cx="-38" cy="-70" r="2" fill="#FDD835"/>
  <circle cx="-20" cy="-76" r="1.4" fill="#FDD835"/>
  <circle cx="2" cy="-72" r="1" fill="#FDD835"/>
  <circle cx="22" cy="-76" r="1.7" fill="#FDD835"/>
  <circle cx="40" cy="-70" r="1.2" fill="#FDD835"/>

  <!-- Trees -->
  <polygon points="-45,48 -33,24 -21,48" fill="#2E4A2E"/>
  <rect x="-36" y="47" width="6" height="7" fill="#1B3320"/>
  <polygon points="21,48 33,24 45,48" fill="#2E4A2E"/>
  <rect x="30" y="47" width="6" height="7" fill="#1B3320"/>

  <!-- Branch -->
  <path d="M-46,54 Q-10,49 0,51 Q15,53 46,48" fill="none" stroke="#5D4037" stroke-width="5" stroke-linecap="round"/>

  <!-- Body -->
  <ellipse cx="0" cy="28" rx="22" ry="24" fill="#3F51B5"/>
  <!-- Wings -->
  <path d="M-22,18 Q-36,26 -34,42 Q-26,34 -16,32" fill="#303F9F"/>
  <path d="M22,18 Q36,26 34,42 Q26,34 16,32" fill="#303F9F"/>
  <!-- Belly -->
  <ellipse cx="0" cy="34" rx="12" ry="14" fill="#5C6BC0"/>
  <circle cx="-4" cy="30" r="1.8" fill="#7986CB"/>
  <circle cx="4" cy="30" r="1.8" fill="#7986CB"/>
  <circle cx="0" cy="37" r="1.8" fill="#7986CB"/>
  <circle cx="-5" cy="43" r="1.4" fill="#7986CB"/>
  <circle cx="5" cy="43" r="1.4" fill="#7986CB"/>

  <!-- Head -->
  <ellipse cx="0" cy="-2" rx="25" ry="23" fill="#3F51B5"/>
  <!-- Ear tufts -->
  <polygon points="-13,-22 -18,-38 -8,-21" fill="#3F51B5"/>
  <polygon points="13,-22 18,-38 8,-21" fill="#3F51B5"/>
  <polygon points="-13,-22 -17,-30 -10,-21" fill="#5C6BC0"/>
  <polygon points="13,-22 17,-30 10,-21" fill="#5C6BC0"/>
  <!-- Face disc -->
  <ellipse cx="0" cy="0" rx="19" ry="17" fill="#283593"/>

  <!-- Left eye -->
  <circle cx="-9" cy="-4" r="9" fill="#FFF9C4"/>
  <circle cx="-9" cy="-4" r="6.5" fill="#F57F17"/>
  <circle cx="-9" cy="-4" r="4" fill="#1A237E"/>
  <circle cx="-11" cy="-6.5" r="1.5" fill="#FFFFFF"/>

  <!-- Right eye -->
  <circle cx="9" cy="-4" r="9" fill="#FFF9C4"/>
  <circle cx="9" cy="-4" r="6.5" fill="#F57F17"/>
  <circle cx="9" cy="-4" r="4" fill="#1A237E"/>
  <circle cx="7" cy="-6.5" r="1.5" fill="#FFFFFF"/>

  <!-- Beak -->
  <polygon points="-3,5 0,13 3,5" fill="#FFB300"/>
  <line x1="-3" y1="8" x2="3" y2="8" stroke="#E65100" stroke-width="1" stroke-linecap="round"/>

  <!-- Backpack -->
  <rect x="14" y="13" width="13" height="16" rx="3" fill="#FFB300"/>
  <rect x="16" y="10" width="9" height="5" rx="2" fill="#FFA000"/>
  <rect x="17" y="20" width="9" height="5" rx="2" fill="#FF8F00"/>
  <line x1="14" y1="16" x2="11" y2="25" stroke="#FF8F00" stroke-width="1.5" stroke-linecap="round"/>

  <!-- Feet -->
  <line x1="-8" y1="51" x2="-12" y2="58" stroke="#5D4037" stroke-width="2" stroke-linecap="round"/>
  <line x1="-8" y1="51" x2="-8" y2="59" stroke="#5D4037" stroke-width="2" stroke-linecap="round"/>
  <line x1="-8" y1="51" x2="-4" y2="58" stroke="#5D4037" stroke-width="2" stroke-linecap="round"/>
  <line x1="8" y1="51" x2="4" y2="58" stroke="#5D4037" stroke-width="2" stroke-linecap="round"/>
  <line x1="8" y1="51" x2="8" y2="59" stroke="#5D4037" stroke-width="2" stroke-linecap="round"/>
  <line x1="8" y1="51" x2="12" y2="58" stroke="#5D4037" stroke-width="2" stroke-linecap="round"/>
</svg>
