<svg xmlns="http://www.w3.org/2000/svg" width="520" height="160" viewBox="0 0 520 160">

  <!-- OWL GROUP -->
  <!-- Stars -->
  <circle cx="30" cy="18" r="1.8" fill="#FDD835" opacity="0.9"/>
  <circle cx="48" cy="10" r="1.3" fill="#FDD835" opacity="0.7"/>
  <circle cx="65" cy="15" r="1" fill="#FDD835" opacity="0.6"/>
  <circle cx="82" cy="9" r="1.6" fill="#FDD835" opacity="0.8"/>
  <circle cx="98" cy="17" r="1.1" fill="#FDD835" opacity="0.6"/>

  <!-- Trees -->
  <polygon points="18,128 30,104 42,128" fill="#2D6A4F"/>
  <rect x="27" y="127" width="6" height="7" fill="#1B4332"/>
  <polygon points="88,128 100,104 112,128" fill="#2D6A4F"/>
  <rect x="97" y="127" width="6" height="7" fill="#1B4332"/>

  <!-- Branch -->
  <path d="M14,134 Q50,129 65,131 Q80,133 116,128" fill="none" stroke="#6D4C41" stroke-width="5" stroke-linecap="round"/>

  <!-- BODY -->
  <ellipse cx="65" cy="108" rx="22" ry="24" fill="#4A90D9"/>
  <!-- Wings -->
  <path d="M43,98 Q29,106 31,122 Q39,114 49,112" fill="#2E6DA4"/>
  <path d="M87,98 Q101,106 99,122 Q91,114 81,112" fill="#2E6DA4"/>
  <!-- Belly -->
  <ellipse cx="65" cy="114" rx="12" ry="14" fill="#6BAED6"/>
  <circle cx="61" cy="110" r="1.8" fill="#9ECAE1"/>
  <circle cx="69" cy="110" r="1.8" fill="#9ECAE1"/>
  <circle cx="65" cy="117" r="1.8" fill="#9ECAE1"/>
  <circle cx="60" cy="123" r="1.4" fill="#9ECAE1"/>
  <circle cx="70" cy="123" r="1.4" fill="#9ECAE1"/>

  <!-- HEAD -->
  <ellipse cx="65" cy="68" rx="25" ry="23" fill="#4A90D9"/>
  <!-- Ear tufts -->
  <polygon points="52,48 47,32 57,47" fill="#4A90D9"/>
  <polygon points="78,48 83,32 73,47" fill="#4A90D9"/>
  <polygon points="52,48 48,40 55,47" fill="#6BAED6"/>
  <polygon points="78,48 82,40 75,47" fill="#6BAED6"/>
  <!-- Face disc -->
  <ellipse cx="65" cy="70" rx="19" ry="17" fill="#1A3A5C"/>

  <!-- Left eye -->
  <circle cx="56" cy="66" r="9" fill="#FFF9C4"/>
  <circle cx="56" cy="66" r="6.5" fill="#E67E00"/>
  <circle cx="56" cy="66" r="4" fill="#0D1F3C"/>
  <circle cx="54" cy="63.5" r="1.5" fill="#FFFFFF"/>

  <!-- Right eye -->
  <circle cx="74" cy="66" r="9" fill="#FFF9C4"/>
  <circle cx="74" cy="66" r="6.5" fill="#E67E00"/>
  <circle cx="74" cy="66" r="4" fill="#0D1F3C"/>
  <circle cx="72" cy="63.5" r="1.5" fill="#FFFFFF"/>

  <!-- Beak -->
  <polygon points="62,75 65,83 68,75" fill="#FFB300"/>
  <line x1="62" y1="78" x2="68" y2="78" stroke="#E65100" stroke-width="1" stroke-linecap="round"/>

  <!-- Backpack -->
  <rect x="79" y="93" width="13" height="16" rx="3" fill="#F4A61D"/>
  <rect x="81" y="90" width="9" height="5" rx="2" fill="#E09000"/>
  <rect x="82" y="100" width="9" height="5" rx="2" fill="#D07800"/>
  <line x1="79" y1="96" x2="76" y2="105" stroke="#D07800" stroke-width="1.5" stroke-linecap="round"/>

  <!-- Feet -->
  <line x1="57" y1="131" x2="53" y2="138" stroke="#6D4C41" stroke-width="2" stroke-linecap="round"/>
  <line x1="57" y1="131" x2="57" y2="139" stroke="#6D4C41" stroke-width="2" stroke-linecap="round"/>
  <line x1="57" y1="131" x2="61" y2="138" stroke="#6D4C41" stroke-width="2" stroke-linecap="round"/>
  <line x1="73" y1="131" x2="69" y2="138" stroke="#6D4C41" stroke-width="2" stroke-linecap="round"/>
  <line x1="73" y1="131" x2="73" y2="139" stroke="#6D4C41" stroke-width="2" stroke-linecap="round"/>
  <line x1="73" y1="131" x2="77" y2="138" stroke="#6D4C41" stroke-width="2" stroke-linecap="round"/>

  <!-- TEXT GROUP -->
  <!-- Main wordmark -->
  <text x="140" y="82" font-family="Georgia, 'Times New Roman', serif" font-size="58" font-weight="700" fill="#FFFFFF" letter-spacing="-1">Hike</text>
  <text x="278" y="82" font-family="Georgia, 'Times New Roman', serif" font-size="42" font-weight="400" fill="#F4A61D">'n'</text>
  <text x="308" y="82" font-family="Georgia, 'Times New Roman', serif" font-size="58" font-weight="700" fill="#FFFFFF" letter-spacing="-1">Seek</text>

  <!-- Tagline -->
  <text x="141" y="106" font-family="Georgia, serif" font-size="13" font-weight="400" fill="#F4A61D" letter-spacing="3.5">EXPLORE · TOGETHER · DISCOVER</text>

  <!-- Divider -->
  <line x1="141" y1="115" x2="490" y2="115" stroke="#4A90D9" stroke-width="0.8" opacity="0.6"/>

  <!-- Sub tagline -->
  <text x="141" y="132" font-family="Georgia, serif" font-size="13" font-weight="400" fill="#9ECAE1" letter-spacing="0.5">hiking adventures for families</text>

</svg>
